<?xml version="1.0" encoding="UTF-8" standalone="no"?>
<!-- Created with Inkscape (http://www.inkscape.org/) -->

<svg
   version="1.1"
   id="svg1"
   width="1024"
   height="1024"
   viewBox="0 0 1024 1024"
   sodipodi:docname="Kanza Logo.svg"
   inkscape:version="1.4 (86a8ad7, 2024-10-11)"
   xmlns:inkscape="http://www.inkscape.org/namespaces/inkscape"
   xmlns:sodipodi="http://sodipodi.sourceforge.net/DTD/sodipodi-0.dtd"
   xmlns="http://www.w3.org/2000/svg"
   xmlns:svg="http://www.w3.org/2000/svg">
  <defs
     id="defs1" />
  <sodipodi:namedview
     id="namedview1"
     pagecolor="#505050"
     bordercolor="#ffffff"
     borderopacity="1"
     inkscape:showpageshadow="0"
     inkscape:pageopacity="0"
     inkscape:pagecheckerboard="1"
     inkscape:deskcolor="#505050"
     inkscape:zoom="0.75878906"
     inkscape:cx="511.34106"
     inkscape:cy="512"
     inkscape:window-width="1920"
     inkscape:window-height="991"
     inkscape:window-x="-9"
     inkscape:window-y="-9"
     inkscape:window-maximized="1"
     inkscape:current-layer="g1" />
  <g
     inkscape:groupmode="layer"
     inkscape:label="Image"
     id="g1">
    <g
       id="g2"
       style="fill:#000000;fill-opacity:1">
      <path
         style="fill-opacity:1;fill:#000000"
         d="M 443.83485,806.18476 C 406.71978,768.95814 370.77338,732.65 363.95395,725.5 350.61735,711.5169 345.66105,706.55062 227.24351,588.51413 l -78.23763,-77.98588 10.24706,-10.38469 C 167.28028,492.00841 281.47538,377.71969 285.79276,373.5 286.3555,372.95 337.11032,321.9875 398.58125,260.25 460.05218,198.5125 510.72865,148 511.19563,148 c 1.15357,0 9.79469,8.02904 9.52189,8.84743 -0.11963,0.35891 0.0983,0.65257 0.48429,0.65257 1.51232,0 8.67895,7.88898 8.09645,8.91251 -0.3404,0.59812 -0.23761,0.74084 0.22842,0.31715 1.10449,-1.00413 8.58,6.28872 7.77739,7.58735 -0.3372,0.54561 -0.16669,0.71612 0.37892,0.37892 0.95404,-0.58964 8.19144,6.01656 8.27584,7.55407 0.0226,0.4125 0.25483,0.6375 0.51597,0.5 0.97989,-0.51594 15.4003,14.64308 14.82111,15.58023 -0.33271,0.53833 -0.15853,0.7029 0.38708,0.3657 1.29863,-0.80261 8.59148,6.6729 7.58735,7.77739 -0.42369,0.46603 -0.28584,0.57184 0.30632,0.23512 1.0091,-0.5738 78.52191,76.6101 135.36595,134.79156 35.0522,35.8769 145.67031,147.9084 157.45603,159.46789 l 9.6532,9.46788 -108.78982,109.03212 C 703.42763,679.43555 642.98846,740.2 628.95276,754.5 c -14.0357,14.3 -46.24567,47.00814 -71.57771,72.68476 l -46.05826,46.68477 z M 582.33385,784.25 c 39.26014,-39.4625 75.1129,-75.6727 79.6728,-80.46712 4.5599,-4.79442 8.78632,-8.43477 9.39204,-8.08968 0.60572,0.3451 0.75466,0.24615 0.33097,-0.21988 -1.03469,-1.1381 6.30068,-8.55819 7.68285,-7.77158 0.59812,0.3404 0.74084,0.23761 0.31715,-0.22842 -1.00413,-1.10449 6.28872,-8.58 7.58735,-7.77739 0.54561,0.3372 0.71612,0.16669 0.37892,-0.37892 -0.80261,-1.29863 6.6729,-8.59148 7.77739,-7.58735 0.46603,0.42369 0.57634,0.29313 0.24512,-0.29013 -0.33121,-0.58326 35.14664,-36.8072 78.83968,-80.49764 C 818.25115,547.25144 854,511.02535 854,510.43945 c 0,-0.5859 -1.334,-2.34332 -2.96444,-3.90538 -1.63045,-1.56207 -2.68592,-3.29079 -2.34549,-3.8416 0.34042,-0.55082 0.1639,-0.72025 -0.39226,-0.37653 -0.55617,0.34373 -9.03393,-7.57424 -18.83948,-17.59549 C 731.22874,384.33001 520.80972,172.50333 514.30798,167.4618 l -3.19202,-2.47514 -172.55798,172.54653 C 243.65109,432.43379 166,510.30734 166,510.58553 c 0,0.2782 19.78727,20.12383 43.97171,44.10141 24.18444,23.97757 43.68991,44.05155 43.34549,44.60884 -0.34442,0.55728 -0.18785,0.74231 0.34793,0.41118 0.53577,-0.33113 15.1178,13.83946 32.4045,31.49019 17.28671,17.65072 32.51217,33.03962 33.83437,34.19754 7.22667,6.32879 30.096,29.46859 30.096,30.45194 0,0.63435 0.65021,1.15337 1.44491,1.15337 0.7947,0 4.6197,3.60286 8.5,8.00635 3.8803,4.40349 7.05509,7.71667 7.05509,7.36262 0,-0.35405 3.37333,2.90559 7.4963,7.24365 12.52767,13.18125 134.95178,136.05313 135.72959,136.22602 0.39924,0.0887 32.84782,-32.12614 72.10796,-71.58864 z m -74.12117,47.61132 c -7.01186,-4.48993 -7.68191,-11.10077 -1.76141,-17.37833 3.93233,-4.16948 7.18726,-4.4741 10.91289,-1.0213 5.8332,5.40602 6.10025,11.3092 0.75349,16.65596 -4.46016,4.46015 -5.40338,4.6262 -9.90497,1.74367 z m -13.39544,-35.61428 c -7.8661,-16.54711 -21.09565,-26.961 -49.31724,-38.82098 -9.35,-3.92929 -20.12694,-8.87305 -23.94876,-10.98613 -14.94594,-8.26362 -32.73897,-23.18078 -56.45358,-47.32907 -28.72136,-29.2466 -50.06157,-53.46174 -50.08805,-56.83586 -0.007,-0.84248 1.00524,-1.03274 3.24039,-0.60929 3.67422,0.69608 5.96917,2.17065 5.23276,3.36219 -0.27237,0.4407 -0.1124,0.95221 0.35548,1.13669 1.71004,0.67422 13.97001,16.69615 13.3259,17.41493 -0.36528,0.40762 -0.16872,0.45888 0.4368,0.11391 0.61086,-0.34801 4.33959,3.14541 8.37631,7.84772 8.60286,10.02132 34.27877,35.09129 44.39357,43.3459 12.25608,10.0021 32.30515,21.67137 43.12918,25.10271 35.26699,11.18004 52.37315,22.34373 66.07194,43.11934 3.54628,5.37831 6.69794,10.43061 7.00367,11.22735 0.329,0.85735 -1.08739,3.12507 -3.47026,5.55608 -2.21438,2.25911 -4.15647,4.10614 -4.31575,4.10451 -0.15928,-0.002 -1.94684,-3.48913 -3.97236,-7.75 z m 24.86543,2.94003 -3.72322,-3.81292 2.55985,-4.81442 C 522.06595,783.8894 526.90729,777 528.04804,777 528.57162,777 529,776.39883 529,775.66406 c 0,-1.9972 12.65607,-13.82921 19.42172,-18.15714 8.04878,-5.14874 15.44994,-8.39391 33.10204,-14.51417 24.22612,-8.39959 34.42738,-14.12132 56.94201,-31.93789 7.75563,-6.13728 13.13181,-9.76211 13.37898,-9.02061 0.53369,1.60108 -28.20893,29.92851 -37.34475,36.80531 -7.47472,5.62643 -23.60991,13.85081 -37.5,19.11438 -23.42776,8.87781 -39.32702,21.113 -48.10206,37.0167 -2.41887,4.3839 -4.64411,7.98393 -4.94499,8.00005 -0.30088,0.0161 -2.22251,-1.68651 -4.27028,-3.78362 z m -53.22812,-2.64162 C 465.10455,795.19545 464,793.375 464,792.5 c 0,-2.06851 4.44532,-6.5 6.52029,-6.5 4.65569,0 7.57449,5.05376 5.35421,9.27052 -2.35423,4.47114 -5.76246,4.93243 -9.41995,1.27493 z m 82.78091,1.35132 c -2.61148,-0.97224 -4.56742,-5.2755 -3.67536,-8.08614 0.69717,-2.19657 5.69508,-4.54508 6.23371,-2.9292 0.18447,0.55342 0.97087,0.76236 1.74755,0.46432 2.1149,-0.81156 3.89998,3.83023 2.77308,7.21092 -1.07011,3.21034 -3.87399,4.5333 -7.07898,3.3401 z m -97.41679,-15.43276 c -1.47473,-0.80076 -2.97455,-2.37978 -3.33293,-3.50893 -0.87434,-2.75482 1.86431,-6.75385 5.19829,-7.59062 2.13399,-0.5356 3.13274,-0.11623 5.06043,2.12485 2.65868,3.0909 2.45097,7.01392 -0.49032,9.26069 -2.06088,1.57425 -3.09407,1.52833 -6.43547,-0.28599 z m 114.00915,0.33129 c -1.64387,-0.55987 -3.07663,-2.07028 -3.72318,-3.92497 l -1.05099,-3.01489 2.42772,-2.42772 c 2.89276,-2.89276 5.6011,-3.09906 7.86364,-0.59898 1.85804,2.05311 2.1393,5.3978 0.68277,8.11935 -1.30345,2.43552 -2.99383,2.93915 -6.19996,1.84721 z m -67.29984,-19.3192 c -2.11917,-3.07694 -6.8174,-8.05576 -10.44051,-11.06405 -6.13473,-5.09369 -9.31493,-6.90864 -24.31353,-13.87584 -3.14933,-1.46293 -6.67745,-3.86937 -7.84025,-5.34764 l -2.11419,-2.68776 4.34025,-0.80026 c 9.97305,-1.83885 23.53284,2.5801 29.43274,9.59173 2.81222,3.34214 4.19386,3.07354 2.34884,-0.45663 C 488.73805,736.53336 480,726.62998 480,727.56852 c 0,0.26556 -1.40444,-0.24342 -3.12097,-1.13108 -4.53716,-2.34625 -15.49977,-2.14114 -21.2385,0.39737 l -4.54685,2.01129 -3.65713,-4.04801 C 442.83187,719.70126 439,711.14559 439,705.96127 v -3.9817 l 5.60303,3.72021 5.60304,3.7202 9.14696,0.15765 c 5.03084,0.0867 10.9736,0.66144 13.20614,1.27717 8.8995,2.45448 18.31774,10.96438 22.93383,20.72199 5.30454,11.21287 9.8716,32.16239 7.81331,35.84035 l -0.92529,1.6534 z m 21.84429,4.05164 c -0.91443,-2.38297 0.28836,-14.87885 2.12028,-22.02774 3.76312,-14.68519 13.29659,-27.80347 24.0176,-33.04877 4.0163,-1.96499 6.69407,-2.50634 12.54789,-2.53673 9.57529,-0.0497 14.15989,-1.28894 18.3371,-4.95658 3.71145,-3.25869 5.12754,-3.64417 5.90874,-1.60841 0.80511,2.09808 -1.13332,9.7281 -3.59496,14.15049 -3.39895,6.10627 -7.71974,7.7651 -19.73424,7.57631 l -9.88524,-0.15533 -5.02161,2.54465 c -3.53823,1.79296 -6.06234,4.09003 -8.54472,7.77616 -5.23122,7.76791 -4.60265,10.09913 1.04866,3.88923 C 542.78852,733.39863 550.75178,729 555.91291,729 c 1.93612,0 5.44777,0.73614 7.80366,1.63586 6.9167,2.64151 5.7532,4.38777 -5.92721,8.89594 -5.61586,2.1675 -12.70336,5.5632 -15.75,7.54601 -6.09415,3.96618 -13.96452,11.943 -16.36645,16.58782 -0.84757,1.63902 -2.24038,3.56044 -3.09514,4.26983 l -1.5541,1.28979 z M 514.46054,739.703 c -1.04708,-2.64794 0.40633,-16.74554 2.4685,-23.94364 4.33108,-15.11786 9.73434,-22.51454 18.0905,-24.76462 5.35674,-1.44242 9.58835,-0.98174 9.15017,0.99614 -0.18167,0.81999 -0.39329,2.39499 -0.47029,3.5 -0.077,1.10502 -4.01109,6.05912 -8.74244,11.00912 -10.22193,10.69432 -12.121,13.66663 -16.47555,25.78653 -2.39377,6.66251 -3.50704,8.71593 -4.02089,7.41647 z m -8.59394,-4.453 c -0.59978,-1.5125 -2.93825,-6.575 -5.1966,-11.25 l -4.10609,-8.5 -8.91116,-8.67432 c -10.20405,-9.93284 -11.42531,-12.85769 -6.4442,-15.43352 l 3.03656,-1.57027 4.33084,1.65397 c 9.95065,3.80018 17.88955,19.4781 19.12787,37.77414 0.60987,9.01071 0.0638,10.79395 -1.83722,6 z m 4.80602,-28.10892 c -0.4021,-2.3974 -2.37603,-9.3724 -4.38652,-15.5 -4.64602,-14.16024 -4.84399,-20.09478 -0.90978,-27.27266 1.54695,-2.82237 3.89075,-5.70858 5.20844,-6.41378 l 2.39581,-1.2822 2.11612,1.91378 c 3.61509,3.26941 6.04617,9.22582 6.04617,14.81377 0,3.33401 -1.60299,10.38438 -4.46762,19.64983 -2.45719,7.9476 -4.6485,15.35018 -4.86958,16.45018 -0.24482,1.21814 -0.68776,0.29597 -1.13304,-2.35892 z m -141.50675,-33.53422 0.22851,-3.39315 5.7248,-0.64768 c 3.20051,-0.3621 8.34957,-1.95931 11.6775,-3.62229 6.47419,-3.2352 10.03959,-7.4202 12.73128,-14.94374 l 1.60996,-4.5 -0.0835,-46.30276 -0.0835,-46.30276 5.2645,0.30276 5.2645,0.30276 0.26034,54.33506 c 0.17145,35.78241 0.62136,55.00964 1.31766,56.31069 0.66468,1.24196 1.86774,1.86024 3.23966,1.66493 L 418.5,666.5 418.75833,610.25 419.01665,554 h 2.82501 c 1.55375,0 2.95332,0.5625 3.11016,1.25 0.15683,0.6875 0.43735,25.55 0.62337,55.25 0.18602,29.7 0.3577,54.59101 0.38152,55.31336 0.0283,0.85865 1.09548,1.20487 3.0824,1 l 3.03911,-0.31336 -0.0551,-56.31796 -0.0551,-56.31797 2.76597,0.31797 2.76596,0.31796 0.52102,56 c 0.28656,30.8 0.62406,56.1125 0.75,56.25 0.12594,0.1375 1.35398,0.25 2.72898,0.25 h 2.5 v -56.35497 -56.35496 l 6.46415,-0.17784 6.46414,-0.17784 0.28586,49.28281 0.28585,49.2828 2.80524,4.77233 c 3.45923,5.88491 9.05698,9.54447 16.80288,10.98497 L 483,669.35301 v 3.8235 V 677 H 425.96867 368.93735 Z M 567.90839,676.75 c -0.0504,-0.1375 -0.30859,-1.78436 -0.57379,-3.65969 -1.19639,-8.46034 -7.80953,-20.74036 -19.03177,-35.34031 -2.43085,-3.1625 -4.08241,-5.75 -3.67015,-5.75 0.41227,0 0.0502,-0.5625 -0.80467,-1.25 -1.33781,-1.07593 -25.46029,-33.15557 -42.67351,-56.75 -3.00938,-4.125 -7.13388,-9.75 -9.16556,-12.5 -5.88424,-7.96468 -6.09285,-7.5 3.36698,-7.5 h 8.47395 l 3.83506,4.97313 c 13.76966,17.85583 50.1486,66.92287 66.24257,89.34638 L 587.31501,667 h 3.94948 c 2.8428,0 3.8088,-0.36663 3.4474,-1.30842 -0.6234,-1.62454 -1.49097,-2.80704 -38.15752,-52.0086 C 540.08428,591.58234 523.49937,569.225 519.69902,564 l -6.90973,-9.5 3.26115,-0.32498 c 2.5237,-0.25149 3.87369,0.31384 5.96997,2.5 3.86935,4.03525 59.29416,78.2447 75.8633,101.57498 l 6.21425,8.75 h 3.95102 c 2.17306,0 3.95102,-0.24229 3.95102,-0.53843 0,-0.29613 -4.58147,-6.70863 -10.18106,-14.25 C 596.21936,644.67021 588.47773,634.225 584.6153,629 c -3.86242,-5.225 -17.635,-23.675 -30.60573,-41 -12.97073,-17.325 -23.93065,-32.0625 -24.35537,-32.75 -0.56885,-0.92079 0.28677,-1.25 3.24873,-1.25 h 4.02097 l 22.99149,30.75 c 12.64533,16.9125 24.02495,32.04901 25.28806,33.63669 1.2631,1.58768 8.92093,11.93768 17.0174,23 8.09647,11.06232 15.66819,21.35081 16.82606,22.86331 1.5729,2.05466 2.97096,2.75 5.52915,2.75 C 626.45923,667 628,666.49284 628,665.87297 628,664.81115 618.90078,652.54738 569.85041,587.5 558.65245,572.65 548.44948,559.0375 547.17715,557.25 L 544.86381,554 h 8.44693 8.44694 l 5.81606,7.75 c 19.16389,25.53618 71.98004,92.49496 76.06683,96.43531 7.18155,6.92423 15.18584,10.50423 27.60943,12.3486 2.69706,0.4004 3.75,1.0494 3.75,2.3114 0,4.13341 -0.28017,4.15469 -54.7,4.15469 -28.765,0 -52.34123,-0.1125 -52.39161,-0.25 z m 122.1135,-20.02475 c 0.012,-0.67389 2.43094,-3.79385 5.37534,-6.93325 2.94439,-3.13939 5.146,-5.91543 4.89246,-6.16898 -0.25354,-0.25354 0.52587,-0.98913 1.73202,-1.63464 1.53801,-0.82312 2.50806,-0.85861 3.24785,-0.11882 2.0178,2.0178 -7.12671,13.00482 -12.51956,15.04207 -2.0701,0.78202 -2.74459,0.73594 -2.72811,-0.18638 z M 507.5,641.17894 c -1.1,-0.96498 -2.79715,-2.6836 -3.77144,-3.81915 l -1.77143,-2.06464 3.89248,-6.66103 3.89248,-6.66104 2.48074,3.26346 c 2.38799,3.14144 5.77717,9.11296 5.77717,10.179 0,1.13126 -6.28222,7.58228 -7.35359,7.55119 -0.63053,-0.0183 -2.04641,-0.8228 -3.14641,-1.78779 z M 321.99772,631.25 c -0.001,-0.4125 -1.35993,-0.79836 -3.01929,-0.85746 -5.17455,-0.1843 -17.38102,-6.97585 -23.66464,-13.16674 -21.36783,-21.05254 -21.81004,-60.76106 -0.93356,-83.83032 14.12631,-15.61008 37.52138,-23.80603 62.23061,-21.80113 5.59024,0.45359 8.33148,0.308 8.81105,-0.46796 0.38288,-0.61951 0.10709,-1.13731 -0.61287,-1.15066 -1.80656,-0.0335 -10.44526,-0.84331 -22.20076,-2.08114 -19.50457,-2.05379 -34.40721,-8.19933 -45.16172,-18.62375 -11.65925,-11.3014 -17.08227,-23.38233 -18.13018,-40.38883 -1.03059,-16.72558 3.29685,-31.18183 12.78966,-42.72508 5.10567,-6.20849 18.36474,-15.52859 21.08095,-14.81829 0.99869,0.26116 1.5912,0.11145 1.3167,-0.33271 -0.2745,-0.44415 1.63737,-1.27474 4.24862,-1.84576 18.82359,-4.1163 34.4157,-0.37986 46.98827,11.26012 17.99811,16.66308 20.37185,45.26568 5.0182,60.46736 -11.09346,10.98366 -27.03675,13.064 -38.27387,4.99412 -6.36846,-4.57348 -8.95514,-9.89469 -8.97143,-18.45559 l -0.0135,-7.07383 3.01163,-4.92617 c 7.24567,-11.85188 24.41528,-12.35414 25.28788,-0.73974 0.37267,4.96033 -0.96102,6.17365 -8.43735,7.67584 -7.03917,1.41437 -9.01311,3.81851 -5.50138,6.70037 3.09021,2.53594 11.19853,2.54767 16.75531,0.0242 10.76309,-4.88771 14.14032,-19.84322 7.44472,-32.96768 -2.5222,-4.94391 -10.11343,-11.81259 -15.86903,-14.35856 -8.93199,-3.95105 -23.0288,-3.33556 -32.48684,1.41843 -12.3089,6.18695 -21.09256,21.0496 -22.35174,37.82093 -1.40212,18.67505 8.58395,38.00652 24.43073,47.29406 12.9923,7.61458 24.40234,10.34117 59.50832,14.22037 l 5.79225,0.64004 -0.29225,7.17277 L 380.5,517.5 l -14.51153,0.61417 c -35.046,1.48326 -58.78299,12.86446 -69.08769,33.12556 -10.11611,19.89028 -6.84817,44.23676 7.9938,59.5547 2.80798,2.89803 5.10542,5.04842 5.10542,4.77863 0,-0.26979 2.1375,0.565 4.75,1.85508 13.42853,6.63116 31.11025,4.77954 41.50397,-4.34627 C 361.71907,608.28345 366,599.00833 366,591.966 366,576.44436 355.62468,566.60053 342.8816,570.03188 336.147,571.84532 335.44536,578 341.97322,578 c 5.24851,0 8.85898,1.96152 10.00564,5.43595 3.31019,10.02998 -9.62189,16.03667 -19.89271,9.23976 -13.34565,-8.83173 -10.92223,-30.56872 4.282,-38.4076 4.14766,-2.13842 6.48472,-2.64088 12.18609,-2.61996 l 7.05424,0.0259 6.27177,3.34282 c 9.91146,5.28275 17.24381,15.60149 17.50143,24.62959 0.0651,2.28055 0.45582,3.94149 0.86832,3.69099 1.03613,-0.62924 0.92578,3.94186 -0.28155,11.66256 -2.65941,17.00661 -16.84612,31.96627 -34.08311,35.94011 -5.09261,1.17405 -23.88425,1.41784 -23.88762,0.30989 z m 344.64207,-2.4044 C 656.51804,624.88146 647.963,616.83091 642.91625,606.52103 L 639.5,599.54205 V 588.52103 577.5 l 2.66041,-5.67515 c 5.94889,-12.69009 16.68211,-20.08203 29.33959,-20.20607 3.8794,-0.038 8.5603,0.56157 10.5,1.34498 11.90767,4.80928 18.23795,17.03825 15.01173,28.99999 -3.17092,11.75666 -18.36366,17.79858 -26.70779,10.62127 -5.21764,-4.48803 -2.50559,-13.57349 4.05684,-13.5906 1.17657,-0.003 3.80959,-0.46949 5.85115,-1.03649 l 3.71194,-1.03092 -1.09166,-2.39591 c -2.28606,-5.01738 -12.42284,-6.49648 -19.46753,-2.84061 -8.89908,4.61821 -12.17414,19.7183 -6.79073,31.30951 3.75793,8.09132 10.74255,14.20788 19.40485,16.99318 l 7.03934,2.26345 7.15971,-0.7055 c 17.51635,-1.72601 32.19443,-12.38586 37.89842,-27.52345 3.20672,-8.51019 4.10488,-19.40255 2.27926,-27.64156 -0.83921,-3.78737 -1.55559,-7.56112 -1.59194,-8.38612 -0.0363,-0.825 -0.38758,-1.725 -0.78051,-2 -0.39293,-0.275 -1.67957,-2.3 -2.85922,-4.5 -3.54565,-6.61252 -4.40315,-7.73865 -9.94028,-13.05424 C 701.17737,524.99998 679.29882,518 651.27997,518 h -12.36759 l 0.29381,-7.25 0.29381,-7.25 8,-0.82023 c 39.25297,-4.02458 55.04398,-9.16541 67.96481,-22.12622 16.48349,-16.53448 20.33645,-41.85961 9.24734,-60.78176 -3.61692,-6.1718 -12.77477,-14.4432 -19.45951,-17.5759 L 699.5,399.5 H 689 678.5 l -6,2.80226 c -13.68804,6.39291 -21.23511,19.3521 -18.56072,31.87085 C 656.24422,444.96245 663.0868,451 673.00982,451 679.5497,451 684,448.78257 684,445.52398 v -2.42467 l -6.1969,-0.7011 c -10.16944,-1.15054 -13.69984,-6.65532 -7.95356,-12.40159 5.69471,-5.69472 15.83733,-4.74311 22.35061,2.09698 11.43469,12.00843 5.29984,32.71102 -11.12793,37.55215 -15.17414,4.47171 -32.01277,-3.08836 -39.78332,-17.8616 l -2.7794,-5.28415 -0.005,-12 -0.005,-12 3.18991,-6.73386 c 1.75445,-3.70363 4.66903,-8.57443 6.47684,-10.82401 4.37969,-5.44994 15.54898,-12.75214 23.10024,-15.10236 10.72769,-3.33883 34.19755,-2.23237 38.23234,1.80242 0.82537,0.82537 1.50067,1.23594 1.50067,0.91239 0,-1.7399 10.86026,5.30748 15.78415,10.24256 C 737.22896,413.2657 743,427.77135 743,443.55611 c 0,12.12129 -1.29798,18.09602 -6.13015,28.21761 -4.68359,9.81038 -14.11419,20.40749 -22.92319,25.75868 -10.60123,6.43991 -24.78493,10.22771 -41.44666,11.06846 -21.34729,1.07719 -21.73517,2.40237 -0.84496,2.88683 10.76573,0.24966 16.93824,0.89639 22.46274,2.35356 24.26122,6.39924 41.45397,22.84364 47.45603,45.39041 1.88445,7.07897 1.82822,24.80464 -0.1022,32.21604 -3.69021,14.16767 -13.47741,27.10227 -25.66436,33.9176 -9.04716,5.05946 -16.18568,6.64142 -29.76735,6.59671 L 674.5,631.92402 Z M 265.72156,591.85836 C 254.65522,580.13442 243.8708,561.62434 235.50761,540 c -5.42159,-14.01841 -13.00504,-29 -14.67934,-29 -0.44828,0 0.70883,-1.9964 2.57136,-4.43645 3.70396,-4.85246 4.97503,-7.94007 9.61422,-23.3543 5.3028,-17.61917 17.22561,-38.22044 30.7944,-53.20925 2.73841,-3.025 5.20612,-5.275 5.48378,-5 0.27766,0.275 -1.2772,5 -3.45526,10.5 -7.40754,18.70538 -9.55821,36.03662 -6.26732,50.50552 1.87169,8.2292 5.24785,13.56708 11.68055,18.46753 2.6125,1.99021 4.75,3.97507 4.75,4.4108 0,0.43572 -2.27681,3.22761 -5.05957,6.20419 -9.02684,9.65555 -12.70847,21.30448 -11.60862,36.73046 0.74346,10.4274 2.9607,19.14442 8.55055,33.61619 2.30122,5.95773 3.93131,11.08498 3.6224,11.39388 -0.3089,0.3089 -2.91134,-1.92769 -5.7832,-4.97021 z M 250.18487,549.25 c -0.32741,-2.0625 -0.59441,-8.25 -0.59331,-13.75 l 0.002,-10 2.68822,-7.495 c 1.47853,-4.12225 3.11317,-7.63664 3.63254,-7.80977 0.51937,-0.17312 -0.1189,-1.88149 -1.41837,-3.79636 -1.29947,-1.91488 -3.07787,-5.63485 -3.952,-8.2666 -1.78599,-5.37712 -2.45148,-20.05691 -1.25268,-27.63227 0.55931,-3.53429 0.48817,-4.56029 -0.24268,-3.5 -1.90204,2.75943 -6.08589,17.86241 -7.40455,26.72918 -1.4255,9.58512 -2.53541,12.38091 -5.83174,14.68975 l -2.17225,1.5215 4.11951,8.77979 c 2.26573,4.82888 5.78374,14.17978 7.81781,20.77978 2.03407,6.6 3.88784,12.3375 4.1195,12.75 0.89732,1.59785 1.05958,0.60041 0.48802,-3 z m 504.91069,32.46226 c 11.49681,-34.07832 10.37007,-53.58458 -3.86428,-66.89916 l -4.96833,-4.64728 4.94653,-4.83291 c 6.64194,-6.48939 9.4296,-11.48642 11.25877,-20.18196 1.93368,-9.19241 1.92588,-13.85233 -0.0405,-24.21847 -1.83757,-9.68684 -3.18294,-13.97669 -8.50505,-27.11911 C 751.7652,428.48573 750,423.87323 750,423.56337 c 0,-2.02584 2.93775,0.61616 9.65902,8.68663 17.08188,20.51081 27.4534,40.5175 33.30738,64.25 0.54266,2.2 2.77724,6.16232 4.96572,8.80515 l 3.97907,4.80514 -4.33554,6.3327 c -2.38454,3.48299 -5.84266,10.09567 -7.68469,14.69486 C 782.1096,550.5663 763.83648,584 760.99926,584 c -0.54959,0 -0.88676,0.38797 -0.74926,0.86217 0.29942,1.0326 -8.02207,11.13783 -9.17183,11.13783 -0.44153,0 1.3663,-6.42948 4.01739,-14.28774 z m 21.96705,-43.79982 c 2.77979,-7.37684 5.71326,-14.42494 6.51883,-15.66244 0.80556,-1.2375 1.22171,-2.25 0.92477,-2.25 -0.29695,0 0.60026,-2.25 1.99379,-5 1.39353,-2.75 2.18861,-5.00224 1.76685,-5.00497 -0.42177,-0.003 -2.00803,-1.01523 -3.52503,-2.25 l -2.75818,-2.24503 -1.40695,-10 c -1.2058,-8.57028 -6.0369,-26.5 -7.14033,-26.5 -0.19966,0 -0.0874,5.14192 0.24935,11.4265 l 0.61236,11.4265 -2.26638,7.04844 c -1.24651,3.87664 -2.88857,7.56482 -3.64903,8.19595 -1.76677,1.46628 -1.75312,3.39774 0.0437,6.18779 3.06212,4.75474 4.81485,14.82503 4.21456,24.21482 -0.31645,4.95 -0.87664,10.35 -1.24486,12 -1.26211,5.65551 0.6165,1.81391 5.66653,-11.58756 z m -382.87748,5.22314 c -0.84969,-0.53882 -1.20348,-2.39076 -1,-5.23469 L 393.5,533.5 l 39.71915,-0.5 39.71914,-0.5 -2.14485,-4.22249 -2.14486,-4.22249 2.73244,-2.53233 c 3.44607,-3.19371 4.62601,-2.61794 11.05094,5.39247 L 487.31243,533 h 4.38033 4.38032 l -7.53654,-9.95175 C 484.39144,517.57479 481,512.67654 481,512.16326 c 0,-0.51328 1.10698,-1.65856 2.45995,-2.54506 l 2.45995,-1.61182 5.35037,6.74681 c 2.9427,3.71074 7.28979,9.33431 9.6602,12.49681 l 4.30982,5.75 3.12986,0.0661 c 6.79537,0.14341 21.11288,-0.21575 21.43483,-0.5377 0.37825,-0.37824 -4.39922,-7.36666 -12.32466,-18.02835 C 508.70277,502.69201 502,493.03318 502,492.19255 502,491.03275 508.40565,485 509.63714,485 c 1.15069,0 4.50317,4.20057 23.94302,30 7.25243,9.625 14.78925,19.50847 16.74848,21.96327 2.65564,3.32735 3.29047,4.79075 2.49436,5.75 -0.85409,1.02912 -16.70925,1.28366 -79.19544,1.27142 -42.97016,-0.008 -78.71925,-0.39052 -79.44243,-0.84911 z M 215.01661,540.714 c -7.67436,-3.88296 -2.30899,-16.4464 5.50347,-12.88681 5.17398,2.35743 5.09954,10.6582 -0.11691,13.03497 -2.98499,1.36006 -2.3724,1.37691 -5.38656,-0.14816 z m 586.01162,0.16348 c -3.16975,-1.25302 -3.99401,-2.61432 -4.01292,-6.62748 -0.0276,-5.86198 4.77159,-8.67111 10.41842,-6.09824 8.16173,3.71873 1.96293,16.03382 -6.4055,12.72572 z M 428.3984,524.6448 422.81938,518.5 l 5.28076,-4.75 c 5.89462,-5.30216 7.0507,-5.61903 10.10825,-2.77048 6.61204,6.16005 6.54896,9.88035 -0.2741,16.16528 l -3.95688,3.6448 z m 309.49876,-0.49507 c -2.47192,-1.56764 -6.16002,-5.16868 -8.19578,-8.00231 -5.27483,-7.34217 -4.83635,-12.60623 1.2604,-15.13159 4.03144,-1.66988 8.42886,0.0988 10.06474,4.0482 l 1.1981,2.89245 -2.11231,4.05256 c -2.78052,5.33454 -2.71312,5.79863 1.38769,9.55483 6.21781,5.69529 3.91097,7.35098 -3.60284,2.58586 z M 279,525.00288 c 0,-0.54841 1.575,-2.74046 3.5,-4.8712 1.925,-2.13074 3.5,-4.19856 3.5,-4.59515 0,-0.39659 -0.9,-1.86524 -2,-3.26366 -1.1,-1.39842 -2,-3.76619 -2,-5.26171 0,-3.56617 4.16137,-8.01116 7.5,-8.01116 3.43462,0 7.5,4.44248 7.5,8.19568 0,5.38852 -3.95434,10.55983 -12.38955,16.20245 C 280.44949,526.18156 279,526.59616 279,525.00288 Z m 124.17308,-1.81093 c -1.4702,-1.54442 -3.37853,-3.70373 -4.24074,-4.79847 l -1.56766,-1.99042 2.25903,-1.70399 c 1.24246,-0.93719 3.46619,-2.16295 4.94162,-2.72391 l 2.68259,-1.01992 4.49964,2.63697 c 3.27242,1.91776 4.13291,2.86363 3.15501,3.46801 -0.73956,0.45707 -1.08308,1.09261 -0.76338,1.41231 0.80208,0.80207 -5.48522,7.52747 -7.03712,7.52747 -0.69075,0 -2.4588,-1.26362 -3.92899,-2.80805 z m 102.75616,-0.51415 c -1.41392,-1.74779 -5.43709,-6.9069 -8.94037,-11.4647 l -6.36962,-8.28689 2.66007,-2.66008 c 1.46304,-1.46304 2.83694,-2.45893 3.05311,-2.2131 0.21617,0.24583 4.33671,5.80211 9.15676,12.34728 l 8.76372,11.90031 -2.37645,1.82746 c -3.00085,2.30759 -2.88419,2.33604 -5.94722,-1.45028 z m -49.47111,-1.90992 -2.61258,-3.10489 6.08442,-5.99096 c 3.34643,-3.29504 5.88217,-6.19322 5.63498,-6.44041 -0.24719,-0.24719 -15.90676,-0.55065 -34.79904,-0.67435 -18.89228,-0.1237 -35.00577,-0.63719 -35.80775,-1.14109 -0.85054,-0.5344 -1.46382,-2.47883 -1.47175,-4.66618 l -0.0136,-3.75 h 37.23791 37.23791 l 7.27567,-6.22745 c 20.0459,-17.15783 63.8461,-62.48136 76.26567,-78.91812 11.77988,-15.59016 14.608,-27.2777 8.60563,-35.56374 -3.86821,-5.33991 -8.25766,-7.89468 -17.55672,-10.21847 -4.25275,-1.06275 -7.90407,-2.10405 -8.11403,-2.31402 -0.20996,-0.20996 -0.50395,-1.47895 -0.65331,-2.81997 L 533.5,356.5 h 60 60 l 0.30579,3.14849 0.30579,3.14849 -5.30579,0.7208 c -13.57142,1.8437 -32.98301,11.73401 -51.84022,26.41289 -15.35228,11.95056 -42.18319,37.54412 -92.73439,88.4578 l -45.16046,45.48429 z M 580.89675,387.91105 c 7.4175,-7.14729 15.52827,-12.90726 25.47204,-18.08932 6.61513,-3.44738 8.44234,-4.77829 6.63121,-4.83006 -9.14595,-0.26142 -40.4615,0.17552 -41.10551,0.57354 -0.43311,0.26767 -0.13655,2.33158 0.65902,4.58646 2.00776,5.69058 1.80622,13.52254 -0.54061,21.00924 -1.0929,3.4865 -1.9929,6.53578 -2,6.77618 -0.0126,0.42674 1.08972,-0.5887 10.88385,-10.02604 z M 195.63636,517.36364 c -4.21701,-4.21702 -2.89848,-13.54744 2.30825,-16.334 5.27812,-2.82476 13.23611,0.9637 14.5453,6.9244 1.9957,9.08639 -10.30762,15.95552 -16.85355,9.4096 z m 617.28675,-0.14103 c -5.94593,-5.31269 -3.41042,-14.66421 4.52056,-16.67288 9.99308,-2.53093 15.95583,10.26011 8.01819,17.20027 -3.64618,3.18798 -8.6144,2.97901 -12.53875,-0.52739 z M 596.5,516.79218 c -2.49044,-1.42826 -4.4762,-4.02168 -3.85231,-5.03115 C 592.90638,511.34246 592.64148,511 592.05902,511 591.47656,511 591,509.2071 591,507.01578 c 0,-5.49604 3.99144,-9.93697 9.60815,-10.69017 l 4.10816,-0.5509 3.31191,2.9592 c 5.30818,4.74285 4.9959,14.05459 -0.59416,17.71734 -2.76367,1.81083 -8.08189,1.97665 -10.93406,0.34093 z M 213.30624,491.35646 c -2.05125,-0.83447 -3.48435,-6.75779 -2.35419,-9.73035 2.07824,-5.46618 10.42952,-5.47359 12.91823,-0.0115 1.66382,3.65169 1.40502,5.20097 -1.32483,7.93081 -2.30459,2.3046 -6.16559,3.06141 -9.23921,1.81101 z m 585.76634,-1.99132 c -2.68102,-3.40836 -2.61667,-5.62108 0.26077,-8.96629 4.56259,-5.30433 12.66665,-2.28966 12.66665,4.71193 0,6.58552 -8.81248,9.48566 -12.92742,4.25436 z M 401.34887,436.76583 401.70934,387.5 399.70171,382 c -3.77201,-10.33358 -12.7055,-16.71781 -25.847,-18.47131 -5.02531,-0.67054 -6.60035,-2.78848 -4.35612,-5.85765 L 370.72049,356 H 429.86024 489 v 3.4121 3.4121 l -4.25,0.70734 C 473.32363,365.43324 462.62683,372.3017 459.10238,380 l -1.60238,3.5 -0.5,51 -0.5,51 -27.7558,0.26583 -27.75581,0.26583 z m 17.88457,-14.29412 c 0.14661,-30.5116 0.11656,-55.92475 -0.0668,-56.47367 C 418.98333,365.44912 417.52941,365 415.93572,365 c -2.17399,0 -3.03608,0.5619 -3.45207,2.25 -0.30495,1.2375 -0.42602,26.36865 -0.26905,55.84701 0.30373,57.03987 0.40891,58.24522 4.87385,55.85565 l 1.87843,-1.0053 z M 444,421.9667 c 0,-59.56176 0.0928,-58.31364 -4.25,-57.18731 l -1.75,0.45387 v 56.18337 c 0,39.03516 0.33096,56.51433 1.08433,57.2677 0.59638,0.59638 1.94638,0.85889 3,0.58337 L 444,478.76674 Z m -12,0.14993 v -56.88337 l -1.75,-0.45387 c -4.34146,-1.12599 -4.25,-2.3448 -4.25,56.63728 0,30.9375 0.3,56.55 0.66667,56.91666 0.36666,0.36667 1.71666,0.66667 3,0.66667 H 432 Z M 315.07895,381.49166 c -0.22125,-5.62834 20.89075,-29.47577 36.42105,-41.14004 14.88695,-11.18107 36.13203,-22.51515 42.6517,-22.75434 1.45843,-0.0535 2.47303,-0.38841 2.25466,-0.74425 -0.53693,-0.87492 16.02097,-3.85761 21.40082,-3.85506 6.93662,0.003 13.06579,2.01653 16.76741,5.5076 L 438,321.73615 v 4.13193 c 0,4.99154 -2.67522,8.13192 -6.92742,8.13192 -4.22335,0 -7.25331,-4.16578 -6.86844,-9.44316 L 424.5,320.5 h -8.15125 c -4.48318,0 -7.94413,0.3375 -7.69098,0.75 0.25314,0.4125 -0.44306,0.75 -1.54713,0.75 -4.15674,0 -18.99695,5.40864 -29.42401,10.72382 -16.01744,8.16487 -27.43118,16.79086 -44.19836,33.40314 C 325.23182,374.30713 317.95682,381 317.32161,381 c -0.63522,0 -1.38192,0.5625 -1.65933,1.25 -0.27741,0.6875 -0.53991,0.34625 -0.58333,-0.75834 z m 390.56424,0.0382 c -1.02125,-0.7736 -7.94606,-7.17178 -15.38848,-14.21819 C 664.32037,342.75727 643.1092,329.67016 619.14052,323.43482 613.5286,321.97491 606.96968,321 602.75968,321 h -7.02136 l 0.59078,3.64059 c 1.30988,8.07185 -4.96658,12.15579 -10.87334,7.07502 -5.08743,-4.37603 -2.87719,-12.86415 4.22761,-16.2356 10.1943,-4.83751 32.92866,-1.73631 52.06278,7.10191 3.98962,1.84284 7.25385,3.84235 7.25385,4.44336 0,0.60102 0.37047,0.86379 0.82327,0.58395 1.15402,-0.71323 11.03249,5.39353 21.73742,13.43784 17.7251,13.31964 32.95586,29.36716 37.20766,39.20293 1.36625,3.16057 0.0625,3.6945 -3.12516,1.27985 z M 458,333 v -5 h 51.54943 51.54944 l -0.22815,5 -0.22814,5 H 509.32129 458 Z m -0.0655,-13.78456 c -1.96525,-0.23952 -3.17094,-1.5297 -5.153,-5.51406 -3.33816,-6.7104 -6.79368,-10.74875 -14.24774,-16.65082 -8.48674,-6.71974 -11.8394,-8.19488 -20.93874,-9.21291 -4.39115,-0.49128 -8.20466,-1.11399 -8.47447,-1.3838 -0.70904,-0.70903 6.9288,-8.38298 9.87948,-9.9262 9.56126,-5.00056 28.51195,-0.0245 38.34572,10.06879 5.79319,5.94608 11.28785,16.69825 12.84994,25.14526 0.63485,3.43294 0.96303,6.41263 0.7293,6.62153 -0.65328,0.58389 -10.10472,1.20393 -12.99049,0.85221 z m 2.24234,-14.03449 c -4.86833,-8.19461 -12.39385,-15.44281 -19.43938,-18.72301 -8.15676,-3.79756 -8.66256,-2.90071 -1.19005,2.11015 9.01881,6.04777 10.47309,7.46912 17.7088,17.30777 7.09481,9.64707 8.82072,9.23642 2.92063,-0.69491 z M 480.6694,318.25 c -0.24675,-0.4125 -1.1723,-3.675 -2.05678,-7.25 C 476.0715,300.72895 468.01214,285.39975 461.24801,277.97184 458.00659,274.41233 454.6197,270.15 453.7216,268.5 451.84831,265.05837 445,245.10422 445,243.08759 c 0,-2.27248 7.70248,-0.45683 16.66141,3.92748 5.84507,2.86044 9.50455,5.48277 12.89381,9.23947 4.93477,5.46978 13.8489,22.24995 12.99792,24.46758 -0.2697,0.70283 -0.13957,1.27788 0.2892,1.27788 2.13167,0 4.8253,18.36346 4.36385,29.75 l -0.29381,7.25 h -5.39717 c -2.96845,0 -5.59906,-0.3375 -5.84581,-0.75 z m 4.32904,-17.73386 c -2.47481,-14.02231 -7.52111,-23.85425 -16.92161,-32.96909 -4.24926,-4.12014 -5.11819,-3.90037 -2.25374,0.57001 9.98199,15.57835 15.64163,27.34232 18.22546,37.88294 1.83964,7.50473 2.53438,3.4939 0.94989,-5.48386 z m 16.65881,7.23386 c -0.69899,-12.14339 -1.82958,-18.85622 -6.69481,-39.75 l -3.14355,-13.5 0.39703,-10.5 c 0.44978,-11.89501 2.14218,-16.93399 9.40413,-28 5.23593,-7.9787 8.22647,-11.48681 9.07162,-10.64166 0.35292,0.35291 0.24154,0.64166 -0.24751,0.64166 -0.48904,0 0.0667,0.66949 1.2349,1.48776 3.44743,2.41467 11.59592,15.49736 14.02163,22.51224 3.8228,11.05507 2.92893,23.61924 -3.1111,43.72919 -2.4455,8.14215 -5.90592,26.93251 -7.18606,39.02081 l -0.66186,6.25 h -6.21843 -6.21843 z M 510.9436,295 c 0.56359,-6.875 1.33966,-14.075 1.72459,-16 1.27488,-6.37548 0.93254,-39.16777 -0.45673,-43.75 -0.7087,-2.3375 -1.66266,-4.25 -2.1199,-4.25 -1.02588,0 -2.84655,9.1257 -3.70258,18.55833 -0.66898,7.37162 1.34755,57.20635 2.3826,58.88109 0.87385,1.41392 1.03731,0.40253 2.17202,-13.43942 z m 14.3064,23.33772 c -1.52848,-0.61676 -1.60855,-7.46907 -0.2318,-19.83772 2.71625,-24.40261 13.86226,-43.93324 29.38976,-51.49825 6.97172,-3.39663 16.93065,-6.18112 17.42745,-4.87268 0.18448,0.48587 0.73209,0.63823 1.21692,0.33859 0.48483,-0.29964 -0.31236,2.96006 -1.77152,7.24377 -1.45917,4.28371 -3.55414,10.44342 -4.65548,13.68824 -1.58736,4.67671 -3.68464,7.7015 -10.1175,14.59194 -9.19959,9.85397 -16.38895,22.70159 -19.17056,34.25839 l -1.62465,6.75 -4.60631,-0.079 c -2.53347,-0.0434 -5.16881,-0.30592 -5.85631,-0.58333 z m 6.75,-8.6514 c 0,-2.28215 5.70724,-19.21032 7.96692,-23.6306 1.24958,-2.44436 4.80473,-8.29436 7.90033,-13 3.0956,-4.70565 5.79488,-9.00572 5.9984,-9.55572 0.20351,-0.55 -2.58556,1.88976 -6.19794,5.42168 -8.46186,8.2734 -13.04162,17.14985 -15.69764,30.425 -2.23565,11.17409 -2.38354,13.02689 -0.97007,12.15332 0.55,-0.33992 1,-1.15608 1,-1.81368 z m 14.08901,2.23505 c 5.844,-21.08881 18.41661,-33.56955 37.32659,-37.05385 11.07765,-2.04114 21.2256,1.67039 25.11113,9.18417 1.76258,3.40846 2.0734,3.25755 -7.02673,3.41153 -10.71478,0.1813 -17.42893,3.26153 -26.0304,11.9419 -4.01333,4.05014 -8.43724,9.77705 -10.30864,13.34488 l -3.27824,6.25 h -8.87765 -8.87765 z m 12.29519,-5.20689 c 4.3318,-6.07047 12.90917,-14.84012 19.1158,-19.54432 l 3,-2.27379 -2.5,0.6979 c -1.375,0.38385 -4.3,1.82192 -6.5,3.19571 C 567.27586,291.42773 559.53481,298 560.65211,298 c 0.36182,0 -0.0107,0.7875 -0.82792,1.75 C 557.71736,302.23147 553,310.64981 553,311.92807 c 0,1.95865 0.8614,1.12455 5.3842,-5.21359 z M 328.59436,769.3547 c -3.57349,-1.09702 -6.51093,-3.11127 -10.81704,-7.41738 -3.25126,-3.25126 -5.62966,-6.36722 -5.28533,-6.92435 C 312.83631,754.45584 312.7135,754 312.21908,754 c -1.21914,0 -3.63052,-7.52525 -2.82765,-8.82432 0.35265,-0.57062 0.18385,-1.32014 -0.37512,-1.6656 -3.23139,-1.99711 0.79818,-19.10848 6.42679,-27.29104 l 3.42305,-4.97624 -9.38562,-9.63288 C 304.31845,696.31183 297.59718,688.65831 294.54439,684.6021 288.36726,676.39463 281.77769,670 279.49712,670 278.6737,670 278,669.61475 278,669.14389 c 0,-1.71162 -9.88645,1.10634 -12.08246,3.44389 -3.59246,3.82399 -3.77377,11.14187 -0.44465,17.94634 4.49392,9.18523 12.60033,13.17191 28.8128,14.16995 5.38213,0.33132 10.01052,0.96619 10.28532,1.41082 0.81275,1.31506 -7.27251,4.92568 -14.42703,6.44265 C 283.38947,713.98969 274,713.55617 274,711.81215 c 0,-0.5116 -0.46657,-0.64183 -1.03682,-0.28939 -1.61903,1.00061 -9.08637,-3.312 -13.07059,-7.54866 -5.63548,-5.99255 -8.04869,-12.12889 -8.47753,-21.55677 l -0.37064,-8.14858 2.72779,-5.38333 c 5.82128,-11.48839 17.30184,-14.52057 30.33024,-8.01066 4.09235,2.04483 7.07676,4.8236 13.03685,12.13857 8.91608,10.94294 39.7295,41.65118 51.09935,50.92494 8.3415,6.80371 13.15559,13.09839 14.86091,19.43146 2.16567,8.04271 -1.49265,18.85599 -7.6712,22.67455 -3.92734,2.42723 -11.71705,5.23185 -10.91163,3.92864 0.37473,-0.60631 -0.3803,-0.59509 -2.02468,0.0301 -3.56877,1.35685 -8.04646,1.14797 -13.89769,-0.64832 z m 20.59719,-14.41508 c 3.20014,-3.83325 3.76378,-9.73432 1.45392,-15.22174 -1.54103,-3.66095 -8.9696,-11.16368 -15.81035,-15.96817 -2.54485,-1.78734 -6.26107,-4.54996 -8.25828,-6.13916 -1.9972,-1.5892 -3.77147,-2.7142 -3.94283,-2.5 -0.17135,0.2142 -1.5091,3.43168 -2.97278,7.14997 -3.09467,7.86162 -3.53066,16.72236 -1.10818,22.5216 3.61095,8.64434 13.16843,14.5851 22.3885,13.91629 l 5.44155,-0.39473 z M 329,749.30602 c -5.86644,-2.09661 -4.9789,-12.33624 1.11498,-12.8636 3.15595,-0.27311 6.88502,3.25251 6.88502,6.50939 0,5.14928 -3.52885,7.95216 -8,6.35421 z m 345.99353,20.69458 c -10.22072,-2.8437 -16.00355,-10.52041 -15.98376,-21.21848 0.0149,-8.08353 3.67581,-14.88626 12.2306,-22.72727 8.19724,-7.5133 46.58332,-45.96845 57.76495,-57.86891 l 7.50532,-7.98781 5.91606,-1.71984 5.91605,-1.71985 5.25477,1.17597 c 4.96349,1.11078 14.20677,6.59463 13.05571,7.74569 -0.29304,0.29304 0.31531,1.44313 1.35188,2.55576 2.6499,2.84433 5.29544,15.76414 3.22796,15.76414 -0.42181,0 -0.81167,1.70604 -0.86634,3.79119 -0.11717,4.46844 -2.51452,9.48802 -6.21346,13.00977 -1.4593,1.38939 -1.97827,2.155 -1.15327,1.70135 0.825,-0.45364 0.46447,0.31377 -0.80117,1.70536 -3.41233,3.7519 -11.28022,7.69042 -17.7535,8.88707 -6.02917,1.11455 -15.83189,0.33974 -14.89433,-1.17725 0.30408,-0.49202 -0.0568,-0.66063 -0.80193,-0.37469 -2.59556,0.99601 -12.24171,-4.4178 -10.64157,-5.97248 0.21587,-0.20975 4.6675,-0.606 9.8925,-0.88057 5.225,-0.27457 10.4,-0.81559 11.5,-1.20225 4.87062,-1.71209 12.5,-5.71663 12.5,-6.56105 0,-0.50955 0.675,-0.92645 1.5,-0.92645 0.825,0 1.42794,-0.3375 1.33987,-0.75 -0.0881,-0.4125 0.80204,-2.775 1.97804,-5.25 2.34676,-4.939 2.80427,-11.54035 1.06446,-15.35882 -1.70114,-3.73361 -6.79102,-6.0509 -11.81155,-5.3775 -6.08591,0.81629 -11.12311,4.61052 -17.86275,13.45498 -3.26124,4.27974 -10.31511,12.12092 -15.67527,17.42486 l -9.74576,9.64352 2.20035,2.20035 c 1.21019,1.21019 3.84561,5.64561 5.85648,9.85648 L 714.5,729.5 l -0.0522,8.5 c -0.0425,6.92055 -0.5258,9.53048 -2.60111,14.04563 -2.72118,5.92033 -8.52798,13.2694 -9.84269,12.45687 -0.43696,-0.27006 -1.02555,0.11118 -1.30799,0.84719 -1.47799,3.85158 -17.89701,6.82262 -25.70252,4.65091 z m 18.65983,-14.11022 c 4.621,-2.83419 9.927,-9.08884 11.33848,-13.36564 1.80298,-5.46311 0.81574,-14.06915 -2.44053,-21.27474 -1.55344,-3.4375 -3.22653,-6.25 -3.71798,-6.25 -0.49146,0 -3.9175,2.50625 -7.61344,5.56945 C 672.50149,736.08329 671,737.99149 671,746.26627 c 0,10.74626 12.30222,15.97276 22.65336,9.62411 z m -5.37344,-6.91047 c -4.27528,-1.7203 -4.36581,-9.0998 -0.15009,-12.23511 3.30587,-2.45865 6.36176,-1.62864 8.38114,2.27641 2.1517,4.16093 1.84374,6.55462 -1.14583,8.90621 -2.87645,2.26262 -3.75388,2.39296 -7.08522,1.05249 z m -432.52369,15.395 c 0.69093,-0.30015 1.0243,-0.921 0.74083,-1.37967 -0.8678,-1.40412 4.47466,-17.0312 8.71202,-25.4833 l 4.00472,-7.98806 -3.46789,-3.01194 c -1.90734,-1.65657 -3.80712,-4.0917 -4.22173,-5.41142 l -0.75384,-2.39947 3.86483,0.79897 c 2.12566,0.43943 8.81483,0.81397 14.86483,0.8323 l 11,0.0333 7.25721,-2.50895 c 3.99146,-1.37992 7.40976,-2.3564 7.59621,-2.16994 0.18646,0.18645 -0.80845,4.0457 -2.21089,8.57612 l -2.5499,8.23712 0.012,12.77907 0.012,12.77907 -2.36363,0.59323 c -1.58317,0.39735 -3.0883,-0.0584 -4.55827,-1.3803 -3.73221,-3.3562 -4.46923,-3.41899 -9.60208,-0.81798 -2.74033,1.38864 -9.1697,3.5952 -14.28749,4.90349 -10.31836,2.63773 -15.9657,3.85104 -14.04884,3.01833 z M 288,734.5 c 5.75535,-5.775 9.97732,-10.5 9.38217,-10.5 -2.71673,0 -18.81833,14.20942 -21.24976,18.75259 -2.66771,4.98465 1.70754,1.94215 11.86759,-8.25259 z m 469.65726,28.14813 c -4.8635,-1.18147 -8.55725,-2.42938 -8.20833,-2.77313 0.34892,-0.34375 -0.39747,-0.625 -1.65865,-0.625 -1.26119,0 -5.21744,-1.3962 -8.79167,-3.10266 L 732.5,753.04467 731,754.9053 c -2.43669,3.02251 -5.88617,4.43406 -7.52069,3.07753 -1.08091,-0.89708 -1.29431,-3.45054 -0.95286,-11.40156 0.45362,-10.56304 -0.82709,-17.52006 -4.9639,-26.96482 l -1.70099,-3.88355 1.81922,0.69954 c 1.00057,0.38475 5.64422,1.60758 10.31922,2.71739 8.54411,2.02832 8.98612,2.03194 27.36316,0.22424 4.26498,-0.41953 6.5926,-0.25466 7.05901,0.5 0.38273,0.61926 0.21931,1.12593 -0.36315,1.12593 -0.58246,0 -0.94652,0.53482 -0.80902,1.18849 0.1375,0.65367 -1.89326,2.64855 -4.51281,4.43307 -2.61954,1.78452 -4.29848,3.53154 -3.73098,3.88228 2.66289,1.64575 13.5262,27.82569 12.34157,29.74245 -0.41483,0.67121 -0.17344,0.76399 0.65524,0.25185 0.97313,-0.60143 1.16961,-0.26627 0.76066,1.29754 -0.30325,1.15963 -0.0366,2.31948 0.59248,2.57743 2.39073,0.98025 -1.16929,0.34709 -9.6989,-1.72498 z m -12.73908,-21.60032 c -3.17819,-3.95484 -11.00196,-11.01184 -15.84401,-14.29122 -5.23981,-3.54878 -4.32983,-1.56211 2.45265,5.35458 10.91851,11.13457 20.06038,17.23534 13.39136,8.93664 z M 265.5,361.50998 c -4.42374,-1.55077 -12.90123,-10.02201 -12.10524,-12.09632 0.27109,-0.70644 0.0268,-1.43979 -0.54278,-1.62967 C 251.4933,347.3311 250.78368,332 252.1214,332 c 0.54815,0 0.75325,-0.39381 0.45577,-0.87514 C 251.84674,329.94301 254.95306,321 256.094,321 c 0.4983,0 0.906,-0.61769 0.906,-1.37264 0,-1.72305 7.66201,-8.85276 12.13564,-11.29254 2.66216,-1.45186 5.57066,-1.83482 13.93507,-1.83482 h 10.5707 l 5.84972,3 c 8.83498,4.53098 8.36106,5.5 -2.68987,5.5 -11.10335,0 -18.25647,1.65746 -23.83383,5.52257 -5.48815,3.8033 -7.8366,7.35028 -9.21379,13.91607 l -1.15354,5.49954 1.66043,3.48196 c 2.25465,4.72805 6.16359,7.10196 11.49798,6.98274 6.31515,-0.14114 11.33219,-4.17963 19.75627,-15.90288 3.95219,-5.5 9.16566,-11.51704 11.5855,-13.3712 8.54373,-6.54647 12.25605,-10.35219 11.30676,-11.59124 -8.04085,-10.49525 -10.83943,-18.62486 -10.15244,-29.49187 0.25919,-4.09987 0.95765,-7.61644 1.55215,-7.81461 0.59449,-0.19816 0.8047,-1.08004 0.46713,-1.95973 -0.44354,-1.15587 -0.24217,-1.36979 0.72612,-0.77135 0.97915,0.60515 1.16796,0.38009 0.70132,-0.83596 C 311.33683,267.71418 311.55001,267 312.19805,267 c 0.62441,0 0.8337,-0.30158 0.46511,-0.67017 -1.28529,-1.2853 6.84222,-11.75356 8.38508,-10.80002 0.4082,0.25229 1.01117,-0.24223 1.33991,-1.09894 0.32875,-0.8567 1.0509,-1.27755 1.60479,-0.93524 C 324.54682,253.83795 325,253.61492 325,253 c 0,-0.61492 0.41891,-0.85914 0.9309,-0.54271 0.512,0.31644 1.22487,0.0997 1.58416,-0.48166 0.35929,-0.58134 1.57174,-0.76547 2.69433,-0.40917 1.25297,0.39767 1.80164,0.2604 1.42098,-0.35551 -0.40184,-0.65019 2.29544,-0.88343 7.66358,-0.66268 7.71457,0.31724 13.70605,1.62254 13.70605,2.986 0,0.32107 -0.51953,0.26268 -1.15451,-0.12976 -0.73827,-0.45628 -0.88207,-0.27271 -0.39885,0.50916 0.41561,0.67247 1.33348,1.00095 2.0397,0.72995 1.56829,-0.60182 5.64914,3.61734 8.08245,8.35638 2.61725,5.09729 2.232,13.49799 -0.89978,19.62021 -2.57931,5.04223 -6.21202,8.84958 -15.66901,16.42226 -3.025,2.42227 -6.62204,5.76614 -7.99343,7.43083 -3.66603,4.45008 -16.47688,17.02268 -25.42399,24.95117 -4.29776,3.80846 -10.03505,9.97799 -12.74953,13.71008 -6.33238,8.70622 -12.29475,13.91863 -18.44165,16.12201 -5.81443,2.08419 -9.49049,2.14676 -14.8914,0.25342 z m 68.24674,-64.90289 c 12.69716,-9.91012 13.31503,-10.55045 16.7038,-17.3111 l 2.60851,-5.20401 -1.77953,-3.76098 c -2.4684,-5.21692 -7.41584,-8.33653 -13.1774,-8.30904 -9.5784,0.0457 -17.55727,6.40141 -20.74951,16.52838 l -1.77261,5.62336 1.6553,8.00519 C 318.68688,299.1989 321.07793,305 322.51979,305 c 0.26053,0 5.31265,-3.77681 11.22695,-8.39291 z m -6.53916,-12.45764 c -2.20099,-1.39632 -3.05814,-6.37354 -1.59855,-9.28228 1.38077,-2.75165 6.55748,-4.86763 7.19914,-2.94265 0.19717,0.59151 0.92376,1.07548 1.61465,1.07548 0.69088,0 1.77867,1.1468 2.4173,2.54844 2.54936,5.59525 -4.47866,11.87067 -9.63254,8.60101 z M 745.25,362.34378 c -1.2375,-0.26559 -2.25,-0.88746 -2.25,-1.38195 0,-0.49448 -0.60679,-0.66621 -1.34843,-0.38162 -2.36266,0.90664 -11.16117,-7.11449 -18.46871,-16.83693 -3.89226,-5.17851 -9.23819,-11.1626 -11.87985,-13.29796 -7.78336,-6.29163 -20.36576,-18.76784 -21.3272,-21.14721 -0.48935,-1.21105 -4.3966,-5.03605 -8.68277,-8.5 C 669.4227,291.20485 661.83333,282.5 663.70655,280.62678 664.05128,280.28205 663.86176,280 663.28538,280 c -0.57637,0 -1.57752,-2.10311 -2.22477,-4.67357 -2.25215,-8.94412 2.35374,-18.92252 10.52398,-22.79955 3.67153,-1.74225 19.41473,-3.15722 19.41612,-1.74508 3.8e-4,0.39501 1.11614,0.78252 2.47944,0.86113 3.43615,0.19814 11.73339,5.20254 10.88954,6.56791 -0.40076,0.64845 -0.21978,0.81454 0.44194,0.40558 1.81899,-1.1242 6.80923,6.80341 8.71546,13.84558 3.09741,11.44278 0.43043,24.34958 -7.06096,34.17129 l -2.45424,3.21768 5.71706,5.32452 c 8.91396,8.3019 12.15352,11.87297 16.42719,18.10824 6.16715,8.99783 9.75149,12.63577 15.13986,15.36627 7.24677,3.67221 14.3809,1.77108 16.89,-4.50091 C 759.41569,341.07521 760.14007,332 759.15573,332 c -0.36713,0 -1.2463,-1.30758 -1.95371,-2.90572 -1.9333,-4.36763 -6.07581,-8.09642 -12.20202,-10.98338 l -5.5,-2.59186 -10,-0.24248 c -5.5,-0.13337 -10.3375,-0.25016 -10.75,-0.25953 -2.01671,-0.0458 -0.35955,-3.09522 2.71452,-4.9951 5.07961,-3.13937 9.15551,-4.10066 17.3686,-4.09631 5.75576,0.003 8.55208,0.56045 13,2.59139 5.82065,2.65773 13.48856,9.15349 12.56645,10.6455 -0.28468,0.46062 -0.0502,0.83749 0.52109,0.83749 1.50401,0 4.79771,7.16737 4.30518,9.36843 -0.28918,1.29227 -0.0351,1.63173 0.82387,1.10085 0.92798,-0.57352 1.06856,-0.0766 0.55605,1.96536 -0.44915,1.78954 -0.32689,2.51104 0.35416,2.09013 0.65486,-0.40472 1.04008,0.86056 1.04008,3.41621 0,2.23246 -0.3876,4.05902 -0.86133,4.05902 -0.47373,0 -0.63348,1.19188 -0.35501,2.64862 0.32552,1.70286 0.13076,2.41653 -0.54541,1.99862 -0.66703,-0.41224 -0.84533,0.13927 -0.48747,1.50775 0.42037,1.60751 0.22969,1.95097 -0.74776,1.34687 -0.88601,-0.54758 -1.07168,-0.42197 -0.5718,0.38685 1.10218,1.78337 -3.95774,7.82909 -8.48595,10.13921 -4.09631,2.08978 -10.81506,3.1486 -14.69527,2.31586 z M 704.42825,297.0069 c 1.20481,-4.64522 1.67214,-9.34772 1.42175,-14.30625 l -0.373,-7.38649 -2.86961,-3.76225 c -6.83059,-8.95536 -17.52415,-12.10429 -24.69494,-7.27189 -8.72265,5.87819 -7.71983,15.00259 2.73166,24.85476 6.51213,6.1387 19.59341,15.7113 20.82447,15.2389 0.6407,-0.24586 1.97255,-3.56091 2.95967,-7.36678 z m -15.22247,-13.57532 c -1.23158,-0.86263 -2.00391,-1.9492 -1.71628,-2.41459 0.28763,-0.46539 0.0989,-0.9971 -0.41933,-1.18158 -0.56488,-0.20107 -0.46725,-1.85395 0.24377,-4.12679 1.80147,-5.75862 8.11885,-6.44368 10.5343,-1.14235 1.55528,3.41346 1.44922,5.56404 -0.40494,8.21122 -1.82313,2.60287 -5.08542,2.86191 -8.23752,0.65409 z M 297,301.2727 c -5.67314,-1.91382 -10.30119,-2.64876 -19,-3.01725 -6.325,-0.26794 -12.05907,-0.78849 -12.74238,-1.15679 -0.88025,-0.47445 -0.3749,-1.61939 1.73376,-3.92808 l 2.97613,-3.25845 -2.93812,-5.20606 c -1.61597,-2.86334 -3.00691,-5.65607 -3.09097,-6.20607 -0.0841,-0.55 -1.036,-2.73111 -2.1154,-4.84691 -1.0794,-2.11579 -1.72758,-4.08186 -1.4404,-4.36904 0.28718,-0.28718 -0.15731,-1.2016 -0.98775,-2.03204 -0.83044,-0.83044 -1.27313,-2.12687 -0.98377,-2.88095 0.28937,-0.75408 0.13427,-1.37106 -0.34466,-1.37106 -1.4749,0 -3.11001,-5.85504 -1.85221,-6.6324 0.6901,-0.42651 0.80661,-0.21033 0.31517,0.58482 -0.59395,0.96104 -0.0354,1.09799 2.34549,0.57506 2.0825,-0.4574 3.12511,-0.30378 3.12511,0.46045 0,0.7143 0.80156,0.89244 2.12523,0.47232 1.46811,-0.46596 1.906,-0.3198 1.41621,0.4727 -0.48707,0.7881 0.0215,0.9708 1.62477,0.58365 2.66545,-0.64365 14.90597,2.64545 18.42422,4.9507 l 2.34981,1.53965 3.27988,-1.99974 c 3.40519,-2.07614 8.36458,-2.76229 7.27988,-1.00721 -0.33992,0.55 -0.14148,1 0.44098,1 0.6692,0 1.05902,3.4123 1.05902,9.2701 0,6.31285 0.66206,11.65626 2.07535,16.75 1.87536,6.75909 3.29306,14.13381 2.66852,13.8813 -0.13413,-0.0542 -3.61887,-1.23714 -7.74387,-2.6287 z m -0.91239,-9.109 C 293.57449,287.46789 276,273.10868 276,275.75114 c 0,0.95796 12.2807,13.0172 16.38486,16.08939 3.53811,2.64847 5.01625,2.77748 3.70275,0.32317 z m 422.4457,9.0863 c 0.41101,-0.9625 1.81344,-6.7 3.1165,-12.75 l 2.3692,-11 -1.0286,-6.8146 c -0.56572,-3.74803 -0.76844,-7.23553 -0.45048,-7.75 1.0933,-1.76901 4.19507,-0.9301 7.57456,2.04863 3.91422,3.45003 4.21589,3.52774 5.88551,1.51597 0.68469,-0.825 1.82729,-1.5 2.53911,-1.5 0.71182,0 1.44422,-0.43674 1.62756,-0.97053 0.18333,-0.5338 1.45833,-1.0963 2.83333,-1.25 1.375,-0.15371 2.74716,-0.60985 3.04924,-1.01364 0.84891,-1.13476 14.96672,-3.57442 17.2417,-2.9795 1.3663,0.3573 1.78986,0.15343 1.30641,-0.62881 -0.45074,-0.72932 0.0245,-1.15752 1.28462,-1.15752 2.69245,0 3.4609,1.51427 1.67484,3.30033 -0.80386,0.80387 -1.183,1.74015 -0.84252,2.08062 0.34047,0.34048 0.0675,0.61905 -0.60664,0.61905 -0.67413,0 -0.95585,0.4366 -0.62606,0.97022 0.74765,1.20972 -3.39108,11.02978 -4.64857,11.02978 -0.50638,0 -0.80954,0.5625 -0.67369,1.25 0.2783,1.40837 -2.45382,6.87661 -5.48276,10.97354 l -2.01356,2.72354 2.66849,2.09904 c 1.46768,1.15447 2.6685,2.91984 2.6685,3.92303 v 1.824 l -10.75,-0.0101 -10.75,-0.0101 -8,2.60076 c -9.61373,3.12537 -10.97833,3.24535 -9.96669,0.87629 z m 17.46113,-14.74505 c 8.39809,-7.47509 10.69325,-10.1506 9.62444,-11.2194 C 744.42764,274.0943 726,290.63009 726,292.89028 c 0,2.10738 1.6054,1.08171 9.99444,-6.38533 z"
         id="path2" />
    </g>
  </g>
</svg>
